# xmcd
#
# Track frame offsets: 
#        150
#        11464
#        24340
#        37997
#        48746
#        67245
#        82745
#        100174
#        115463
#        131906
#        147456
#        162424
#        178415
#        193698
#        214106
#        231079
#        244796
#        258197
#
# Disc length: 3572 seconds
#
# Revision: 0
# Processed by: cddbd v1.5.2PL0 Copyright (c) Steve Scherf et al.
# Submitted via: ExactAudioCopy v0.95b4
#
DISCID=040df212
DTITLE=Tracy Byrd - The Definitive Collection
DYEAR=2007
DGENRE=Country
TTITLE0=Holdin' Heaven
TTITLE1=Lifestyles Of the Not So Rich And Famous
TTITLE2=Watermelon Crawl
TTITLE3=The First Step
TTITLE4=The Keeper Of the Stars
TTITLE5=Walking To Jerusalem
TTITLE6=Love lessons
TTITLE7=Heaven In My Woman's Eyes
TTITLE8=Big Love
TTITLE9=Don't Take Her She's All I Got
TTITLE10=Don't Love Make A Diamond Shine
TTITLE11=I'm From The Country
TTITLE12=I Wanna Feel That Way Again
TTITLE13=Put Your Hand In Mine
TTITLE14=Just Let Me Be In Love
TTITLE15=Ten Rounds With Jose Cuervo
TTITLE16=The Truth About Men
TTITLE17=Drinkin' Bone
EXTD=
EXTT0=
EXTT1=
EXTT2=
EXTT3=
EXTT4=
EXTT5=
EXTT6=
EXTT7=
EXTT8=
EXTT9=
EXTT10=
EXTT11=
EXTT12=
EXTT13=
EXTT14=
EXTT15=
EXTT16=
EXTT17=
PLAYORDER=
